<svg xmlns="http://www.w3.org/2000/svg" width="354" height="240" fill="none" viewBox="0 0 354 240"><rect width="354" height="240" fill="#fff"/><rect width="312" height="3" x="21" y="46" fill="#E2E8F0"/><rect width="152" height="17" x="33" y="63" fill="#A0AEC0"/><rect width="204" height="17" x="33" y="111" fill="#A0AEC0"/><rect width="88" height="17" x="33" y="159" fill="#A0AEC0"/><rect width="312" height="3" x="21" y="94" fill="#E2E8F0"/><rect width="312" height="3" x="21" y="142" fill="#E2E8F0"/><rect width="312" height="3" x="21" y="190" fill="#E2E8F0"/><path fill="#A0AEC0" fill-rule="evenodd" d="M322.424 70.1255L313.493 77.994L304.98 70.0999L307.02 67.9001L313.544 73.9504L320.441 67.8745L322.424 70.1255Z" clip-rule="evenodd"/><path fill="#A0AEC0" fill-rule="evenodd" d="M322.424 118.126L313.493 125.994L304.98 118.1L307.02 115.9L313.544 121.95L320.441 115.875L322.424 118.126Z" clip-rule="evenodd"/><path fill="#A0AEC0" fill-rule="evenodd" d="M322.424 166.126L313.493 173.994L304.98 166.1L307.02 163.9L313.544 169.95L320.441 163.875L322.424 166.126Z" clip-rule="evenodd"/></svg>