<svg xmlns="http://www.w3.org/2000/svg" width="354" height="240" fill="none" viewBox="0 0 354 240"><rect width="354" height="240" fill="#fff"/><rect width="312" height="60" x="21" y="90" fill="#A0AEC0"/><rect width="186" height="6" x="73" y="117" fill="#fff"/><path fill="#E2E8F0" d="M47 108C40.376 108 35 113.37 35 120C35 126.63 40.376 132 47 132C53.624 132 59 126.63 59 120C59 113.37 53.624 108 47 108ZM48.2 126H45.8V123.6H48.2V126ZM48.2 121.2H45.8V114H48.2V121.2Z"/><path fill="#fff" d="M308.91 112L303 117.91L297.09 112L295 114.09L300.91 120L295 125.91L297.09 128L303 122.09L308.91 128L311 125.91L305.09 120L311 114.09L308.91 112Z"/></svg>